PathFileType	4	(X/Y/Z)	/Users/itak/Documents/Research/Walk-IL/dataset/trc/00064_00006.trc
DataRate	CameraRate	NumFrames	NumMarkers	Units	OrigDataRate	OrigDataStartFrame	OrigNumFrames
100.000000	100.000000	4	53	mm	100.000000	477	764
Frame#	Time	RPSI			LPSI			L3			STRN			T10			C7			CLAV			RBAK			LBAK			LSHO			LUPA			LAEL			LAOL			LWTS			LWPS			LFRA			LIFD			LHPS			LHTS			RSHO			RUPA			RAEL			RAOL			RWTS			RWPS			RFRA			RIFD			RHTS			RHPS			RBHD			LFHD			RFHD			LBHD			LHIP			RHIP			RASI			LASI			LKNE			LTHI			LANK			LTIP			LTOE			LMT1			LMT5			LHEE			RKNE			RTHI			RANK			RTIP			RTOE			RMT1			RMT5			RHEE			
		X1	Y1	Z1	X2	Y2	Z2	X3	Y3	Z3	X4	Y4	Z4	X5	Y5	Z5	X6	Y6	Z6	X7	Y7	Z7	X8	Y8	Z8	X9	Y9	Z9	X10	Y10	Z10	X11	Y11	Z11	X12	Y12	Z12	X13	Y13	Z13	X14	Y14	Z14	X15	Y15	Z15	X16	Y16	Z16	X17	Y17	Z17	X18	Y18	Z18	X19	Y19	Z19	X20	Y20	Z20	X21	Y21	Z21	X22	Y22	Z22	X23	Y23	Z23	X24	Y24	Z24	X25	Y25	Z25	X26	Y26	Z26	X27	Y27	Z27	X28	Y28	Z28	X29	Y29	Z29	X30	Y30	Z30	X31	Y31	Z31	X32	Y32	Z32	X33	Y33	Z33	X34	Y34	Z34	X35	Y35	Z35	X36	Y36	Z36	X37	Y37	Z37	X38	Y38	Z38	X39	Y39	Z39	X40	Y40	Z40	X41	Y41	Z41	X42	Y42	Z42	X43	Y43	Z43	X44	Y44	Z44	X45	Y45	Z45	X46	Y46	Z46	X47	Y47	Z47	X48	Y48	Z48	X49	Y49	Z49	X50	Y50	Z50	X51	Y51	Z51	X52	Y52	Z52	X53	Y53	Z53	

478	4.77	-110.5012893676758	1009.539611816406	-623.6548461914062	-11.68048000335693	1001.837036132812	-483.7182312011719	-53.03485488891602	1069.72900390625	-545.2131958007812	-275.6710205078125	1266.994506835938	-423.3284606933594	-32.90542221069336	1199.776489257812	-537.1708984375	-83.21462249755859	1466.914306640625	-506.0252685546875	-246.3399200439453	1381.186401367188	-434.0945434570312	-58.17594909667969	1329.815551757812	-599.8272094726562	-20.21037483215332	1428.355590820312	-425.2496643066406	-82.50433349609375	1432.95751953125	-316.7027587890625	-37.29013061523438	1307.223266601562	-251.9860534667969	-60.69397735595703	1094.783935546875	-211.6391143798828	-41.72726821899414	1071.919189453125	-314.6688842773438	-234.6479339599609	898.222412109375	-230.9689331054688	-165.5866851806641	865.3895263671875	-197.0582733154297	-105.489875793457	994.3905639648438	-193.4170989990234	-307.180908203125	727.304443359375	-249.6825866699219	-221.5976715087891	796.36767578125	-189.9015960693359	-278.0923461914062	824.9351196289062	-221.2099609375	-211.7098236083984	1435.1884765625	-638.593017578125	-221.4004211425781	1372.94873046875	-703.9835815429688	-178.1637725830078	1129.617065429688	-785.0082397460938	-161.1864013671875	1093.34619140625	-693.1888427734375	-273.8291931152344	858.4827880859375	-724.2649536132812	-225.9872436523438	856.7567138671875	-796.2559204101562	-186.5540161132812	1046.963256835938	-799.4467163085938	-233.4541015625	669.316650390625	-723.1481323242188	-268.3383178710938	749.173095703125	-725.7435302734375	-241.1397705078125	762.3421630859375	-793.9655151367188	-91.38544464111328	1640.341796875	-497.4259033203125	-288.4261474609375	1686.943603515625	-425.0974426269531	-186.4873504638672	1686.912231445312	-352.3877258300781	-209.5655059814453	1633.459106445312	-567.5145263671875	-46.48120498657227	937.4833984375	-350.0399169921875	-214.5247192382812	945.5283203125	-654.2667846679688	-305.3132934570312	971.0719604492188	-569.7274169921875	-170.4287261962891	949.31298828125	-336.8424377441406	-155.2588653564453	479.9379272460938	-453.0117797851562	-106.4010314941406	614.3211669921875	-401.6231689453125	-38.3106689453125	45.94619750976562	-561.9259643554688	-91.06126403808594	244.2810668945312	-504.2116088867188	-245.4714050292969	39.57991409301758	-552.4428100585938	-199.5047760009766	36.36759185791016	-607.4224853515625	-138.0137634277344	40.32544326782227	-513.2293701171875	5.062577724456787	49.75008392333984	-643.8883666992188	-428.8745727539062	552.26904296875	-504.3912963867188	-345.6209106445312	801.4849243164062	-585.1365356445312	-404.2682800292969	62.41250991821289	-598.0909423828125	-437.4159240722656	425.9454345703125	-525.1396484375	-531.4839477539062	86.87261962890625	-432.4495849609375	-462.9849853515625	78.85984039306641	-440.5379638671875	-504.0435180664062	73.20341491699219	-530.62841796875	-333.4665222167969	61.76934432983398	-585.8626098632812	
479	4.78	-119.3925170898438	1008.456176757812	-620.70751953125	-18.88225555419922	1000.943115234375	-481.9111022949219	-61.00950622558594	1068.683715820312	-543.0018310546875	-282.6520080566406	1265.746704101562	-418.9730529785156	-40.85249710083008	1198.828247070312	-535.2798461914062	-91.22391510009766	1465.889526367188	-503.4967651367188	-253.4033966064453	1379.970092773438	-429.9717712402344	-67.00399780273438	1328.854858398438	-597.590576171875	-27.33532905578613	1427.359741210938	-423.325927734375	-88.6580810546875	1431.832885742188	-314.2220764160156	-42.90063858032227	1306.130859375	-249.9486694335938	-66.44369506835938	1093.791625976562	-209.0214538574219	-48.1815071105957	1070.715087890625	-312.0746459960938	-241.7270660400391	898.3175659179688	-227.2708892822266	-172.7581481933594	865.0595703125	-193.7427825927734	-111.7881774902344	993.7093505859375	-190.4466857910156	-315.5210876464844	727.8428344726562	-245.6496429443359	-229.2905120849609	796.3599243164062	-186.4650268554688	-285.6130676269531	825.3034057617188	-217.3045043945312	-220.9908447265625	1434.156982421875	-634.7842407226562	-231.2034149169922	1372.075805664062	-700.1702880859375	-188.1190185546875	1129.126586914062	-782.2177734375	-170.1472625732422	1092.692993164062	-690.7400512695312	-282.4087219238281	857.5584106445312	-721.1250610351562	-235.2703094482422	856.1395874023438	-793.59228515625	-196.4328308105469	1046.478881835938	-796.7779541015625	-241.2583618164062	668.517333984375	-720.8174438476562	-277.6289367675781	748.4324951171875	-722.9051513671875	-250.0782623291016	761.6775512695312	-791.3749389648438	-99.50734710693359	1639.347290039062	-494.8130493164062	-295.8912353515625	1685.633422851562	-420.2237548828125	-193.0603637695312	1685.643798828125	-348.8034973144531	-218.5800323486328	1632.374389648438	-563.6021728515625	-52.00347518920898	936.6754760742188	-347.7513732910156	-223.7083892822266	944.347900390625	-650.0567626953125	-313.6932067871094	969.8607788085938	-564.6565551757812	-175.9141540527344	948.227294921875	-333.3719482421875	-158.8748779296875	478.8836059570312	-451.3283386230469	-110.6306991577148	613.474853515625	-399.8351135253906	-38.57541656494141	46.32195663452148	-563.1567993164062	-92.88304138183594	243.8642272949219	-504.2115478515625	-245.7009735107422	39.41117095947266	-552.3048706054688	-199.9757232666016	36.07809448242188	-607.5244750976562	-137.9425048828125	40.45438003540039	-513.8787231445312	4.252312183380127	50.66110992431641	-645.38916015625	-434.8248291015625	550.8194580078125	-497.7130126953125	-353.8350219726562	800.1088256835938	-579.7291259765625	-431.7142028808594	58.47295761108398	-578.13330078125	-448.0838623046875	424.8132019042969	-515.4185180664062	-551.95263671875	92.19171142578125	-409.0452880859375	-484.1230773925781	81.49476623535156	-419.2189636230469	-528.4701538085938	74.77860260009766	-507.6510009765625	-360.6283264160156	55.27188491821289	-568.5513305664062	
480	4.79	-128.3287200927734	1007.291442871094	-617.599609375	-26.13072395324707	999.9923095703125	-479.9357604980469	-69.01734924316406	1067.55029296875	-540.6204223632812	-289.6891479492188	1264.427856445312	-414.5608825683594	-48.8271484375	1197.779541015625	-533.228515625	-99.24703216552734	1464.78271484375	-500.8830261230469	-260.5242614746094	1378.678955078125	-425.8105163574219	-75.82511138916016	1327.791137695312	-595.2254028320312	-34.51702880859375	1426.293212890625	-421.2914428710938	-94.89746856689453	1430.663940429688	-311.6661987304688	-48.63345718383789	1304.997802734375	-247.7757568359375	-72.25188446044922	1092.773071289062	-206.2889404296875	-54.71015548706055	1069.465576171875	-309.3317260742188	-248.7544403076172	898.2740478515625	-223.3555908203125	-179.8221740722656	864.6326293945312	-190.250732421875	-118.0889282226562	992.972412109375	-187.3196563720703	-323.6609497070312	728.1983032226562	-241.2858428955078	-236.8173522949219	796.2308959960938	-182.8025817871094	-293.0018920898438	825.5103759765625	-213.1217193603516	-230.2521057128906	1433.007080078125	-630.913818359375	-240.9682922363281	1371.072631835938	-696.2782592773438	-198.1052398681641	1128.509765625	-779.36279296875	-179.1827850341797	1091.917602539062	-688.2206420898438	-291.1490478515625	856.5641479492188	-717.9249877929688	-244.7179260253906	855.4210205078125	-790.8580322265625	-206.3846893310547	1045.8662109375	-794.0468139648438	-249.3827056884766	667.6358032226562	-718.40966796875	-287.250244140625	747.6316528320312	-720.0076293945312	-259.2264709472656	760.9185791015625	-788.703857421875	-107.6655578613281	1638.253784179688	-492.1291198730469	-303.3617248535156	1684.250732421875	-415.2958679199219	-199.6502685546875	1684.292846679688	-345.183837890625	-227.6174926757812	1631.2138671875	-559.62109375	-57.60336685180664	935.801025390625	-345.3352966308594	-232.8794097900391	943.0552978515625	-645.6533813476562	-321.9846801757812	968.5497436523438	-559.4183959960938	-181.48095703125	947.0648193359375	-329.7926635742188	-162.4710693359375	477.8056030273438	-449.6405944824219	-114.8471221923828	612.5709838867188	-398.0018920898438	-38.86080551147461	46.73456192016602	-564.4854736328125	-94.69941711425781	243.4247283935547	-504.263671875	-245.9107513427734	39.25057220458984	-552.159912109375	-200.4566497802734	35.82928848266602	-607.6264038085938	-137.8282775878906	40.54638290405273	-514.5946044921875	3.395167589187622	51.64705276489258	-646.9998779296875	-440.552734375	549.0498657226562	-491.5223083496094	-362.0039367675781	798.5547485351562	-574.3619384765625	-458.0147094726562	55.40621948242188	-557.7250366210938	-458.2870178222656	423.6444702148438	-506.0466613769531	-571.0369262695312	98.18699645996094	-385.8165588378906	-503.9912414550781	84.82103729248047	-397.9093322753906	-551.5682373046875	77.14643096923828	-484.5662536621094	-386.7926940917969	49.70626068115234	-550.6885375976562	
481	4.8	-137.3258666992188	1006.069030761719	-614.3510131835938	-33.44536590576172	999.0042724609375	-477.8176574707031	-77.07241058349609	1066.34326171875	-538.0873413085938	-296.7755432128906	1263.050048828125	-410.08447265625	-56.83434295654297	1196.6376953125	-531.0132446289062	-107.2817993164062	1463.60205078125	-498.1805725097656	-267.7199096679688	1377.32373046875	-421.6122741699219	-84.63786315917969	1326.629516601562	-592.7318725585938	-41.76039886474609	1425.1640625	-419.1477661132812	-101.2200622558594	1429.459350585938	-309.0316772460938	-54.48624801635742	1303.82958984375	-245.4692077636719	-78.12493896484375	1091.733032226562	-203.4397888183594	-61.31302642822266	1068.17578125	-306.4306335449219	-255.7252044677734	898.0882568359375	-219.23291015625	-186.7762145996094	864.1035766601562	-186.5766906738281	-124.385871887207	992.18115234375	-184.0325012207031	-331.6150817871094	728.3715209960938	-236.6131286621094	-244.1638946533203	795.978271484375	-178.8994140625	-300.2488098144531	825.5521850585938	-208.6742706298828	-239.4880523681641	1431.747192382812	-626.9817504882812	-250.6885681152344	1369.942626953125	-692.3060913085938	-208.1202697753906	1127.766723632812	-776.4320068359375	-188.2913055419922	1091.021606445312	-685.60986328125	-300.0544738769531	855.5011596679688	-714.6574096679688	-254.3354797363281	854.60205078125	-788.0503540039062	-216.4081878662109	1045.127807617188	-791.24072265625	-257.8092651367188	666.6657104492188	-715.9201049804688	-296.9963989257812	746.7367553710938	-717.0337524414062	-268.589599609375	760.0662841796875	-785.95166015625	-115.8669357299805	1637.072631835938	-489.3778076171875	-310.8407592773438	1682.809936523438	-410.3213195800781	-206.2685852050781	1682.874877929688	-341.5185852050781	-236.6752624511719	1629.988891601562	-555.5726318359375	-63.27474594116211	934.8709716796875	-342.8186340332031	-242.0623321533203	941.680419921875	-641.0870971679688	-330.1976623535156	967.1355590820312	-554.0052490234375	-187.1088562011719	945.83203125	-326.0984802246094	-166.0104064941406	476.7047119140625	-447.9168395996094	-119.0111312866211	611.6240844726562	-396.1220092773438	-39.16563415527344	47.16294860839844	-565.8349609375	-96.48432159423828	242.9833831787109	-504.3075866699219	-246.0830230712891	39.11111068725586	-552.0038452148438	-200.9268798828125	35.62801361083984	-607.7164916992188	-137.6640625	40.60880661010742	-515.3132934570312	2.519191265106201	52.69766616821289	-648.6368408203125	-446.1887817382812	547.02587890625	-485.7763366699219	-370.1425476074219	796.8396606445312	-569.0146484375	-482.9473876953125	53.17037963867188	-537.0752563476562	-468.05517578125	422.4825134277344	-497.0254516601562	-588.610595703125	104.7075347900391	-362.9299011230469	-522.4371337890625	88.76126861572266	-376.7883605957031	-573.1796875	80.16838073730469	-461.5689392089844	-411.7237243652344	45.13857269287109	-532.4605712890625	
